<svg width="66" height="63" viewBox="0 0 66 63" fill="none" xmlns="http://www.w3.org/2000/svg">
<path id="Vector" d="M55.2003 13.8341L46.8332 2.6131L58.8341 0.140686L61.216 12.5662L55.2003 13.8341ZM46.2225 15.6408L37.8555 4.45156L31.8398 5.68777L40.2373 16.877L46.2225 15.6408ZM1.30322 24.9282V56.6259C1.30322 58.3072 1.94667 59.9197 3.09201 61.1086C4.23736 62.2975 5.79077 62.9654 7.41053 62.9654H28.7861V53.8682L56.666 24.9282H1.30322ZM31.2596 18.7472L22.8926 7.49454L16.8769 8.79414L25.2744 19.9834L31.2596 18.7472ZM7.89912 10.6643L4.90654 11.2666C3.323 11.6018 1.93098 12.5724 1.03319 13.9673C0.1354 15.3622 -0.195554 17.0686 0.112296 18.7155L1.30322 24.9282L16.2661 21.8536L7.89912 10.6643ZM34.8934 56.4991V62.9654H41.1229L59.8418 43.5665L53.6124 37.0684L34.8934 56.4991ZM64.972 35.9273L60.9411 31.7432C60.3304 31.1093 59.3227 31.1093 58.7425 31.7432L55.7499 34.8496L61.9794 41.3159L64.972 38.2095C65.5827 37.6073 65.5827 36.5613 64.972 35.9273Z" fill="#D13027"/>
</svg>
